{"glyphs":{"0":{"ha":1439,"x_min":0,"x_max":0,"o":"m 1137 964 b 1382 719 1258 936 1354 840 b 1391 643 1388 694 1391 669 l 1391 330 b 1383 256 1391 304 1388 280 b 1382 254 1382 256 1382 255 b 1137 9 1354 133 1258 37 b 1096 2 1123 6 1109 3 b 1061 0 1084 1 1073 0 l 378 0 b 344 2 367 0 355 1 b 303 9 330 3 316 6 b 57 254 181 37 86 133 b 52 281 55 263 53 272 b 49 330 50 297 49 313 l 49 643 b 52 692 49 660 50 676 b 57 719 53 701 55 710 b 303 964 86 840 181 936 b 306 965 304 965 305 965 b 378 973 330 970 354 973 l 1061 973 b 1137 964 1087 973 1112 970 m 401 254 l 1039 254 b 1137 352 1093 254 1137 298 l 1137 621 b 1039 719 1137 675 1093 719 l 401 719 b 303 621 347 719 303 675 l 303 352 b 401 254 303 298 347 254 "},"1":{"ha":650,"x_min":0,"x_max":0,"o":"m 593 719 b 601 643 599 694 601 669 l 601 0 l 347 0 l 347 621 b 249 719 347 675 303 719 l 49 719 l 49 973 l 272 973 b 347 964 298 973 323 970 b 497 884 404 951 456 923 b 593 719 544 840 578 783 "},"2":{"ha":1390,"x_min":0,"x_max":0,"o":"m 1018 243 l 1341 243 l 1341 0 l 49 0 l 49 155 l 180 243 l 272 306 l 853 719 l 303 719 l 303 630 l 49 630 l 49 973 l 1031 973 b 1106 964 1057 973 1082 970 b 1168 943 1128 959 1148 952 b 1341 754 1248 906 1311 838 l 1106 586 l 623 243 l 1018 243 "},"3":{"ha":1201,"x_min":0,"x_max":0,"o":"m 966 973 b 1152 787 1069 973 1152 890 l 1152 186 b 966 0 1152 83 1069 0 l 283 0 l 283 0 l 49 0 l 49 254 l 898 254 l 898 362 l 49 362 l 49 567 l 898 567 l 898 719 l 49 719 l 49 973 l 966 973 "},"4":{"ha":1369,"x_min":0,"x_max":0,"o":"m 1067 973 l 1321 973 l 1321 0 l 1067 0 l 1067 214 l 49 214 l 49 973 l 303 973 l 303 469 l 1067 469 "},"5":{"ha":1379,"x_min":0,"x_max":0,"o":"m 1323 421 b 1331 349 1328 398 1331 374 l 1331 315 b 1323 245 1331 291 1328 267 b 1323 243 1323 244 1323 244 b 1088 8 1296 127 1204 35 b 1086 8 1087 8 1087 8 b 1049 2 1074 5 1061 3 b 1016 0 1038 1 1027 0 l 59 0 l 59 233 b 57 243 58 236 58 240 l 995 243 b 1088 332 1045 243 1086 283 b 995 421 1086 382 1045 421 l 49 421 l 49 657 b 52 703 49 673 50 688 b 57 729 53 712 55 721 b 292 964 84 845 175 937 b 295 965 293 964 294 964 b 364 972 317 970 340 972 l 1323 972 l 1323 731 b 1323 729 1323 730 1323 730 l 385 729 b 294 657 341 729 303 698 b 295 657 294 657 295 657 b 364 664 317 662 340 664 l 1016 664 b 1086 656 1040 664 1063 662 b 1088 656 1087 656 1087 656 b 1323 421 1204 629 1296 537 "},"6":{"ha":1379,"x_min":0,"x_max":0,"o":"m 1322 378 b 1330 311 1327 357 1330 334 b 1322 245 1330 288 1327 266 b 1322 243 1322 244 1322 243 b 1087 8 1295 127 1204 35 l 1087 8 b 1048 2 1075 5 1062 3 b 1016 0 1038 1 1027 0 l 363 0 b 331 2 352 0 341 1 b 291 8 317 3 304 5 b 57 243 175 35 84 127 b 52 269 55 251 53 260 b 49 310 50 282 49 296 b 49 315 49 312 49 313 l 49 657 b 52 703 49 672 50 688 b 57 729 53 712 55 720 b 291 963 84 845 175 936 b 295 964 293 963 294 964 b 363 971 317 969 340 971 l 1232 971 l 1232 729 l 385 729 b 291 635 333 729 291 687 l 291 613 l 291 613 b 295 613 293 613 294 613 b 363 621 317 618 340 621 l 1016 621 b 1087 613 1040 621 1064 618 b 1322 378 1204 586 1295 494 m 994 243 b 1084 310 1037 243 1073 271 l 1084 310 b 994 378 1073 349 1037 378 l 385 378 b 295 310 342 378 306 349 l 295 310 b 385 243 306 271 342 243 l 994 243 "},"7":{"ha":1056,"x_min":0,"x_max":0,"o":"m 1007 0 l 753 0 l 753 679 b 674 719 735 703 707 719 l 49 719 l 49 973 l 697 973 b 772 964 723 973 748 970 b 834 943 794 959 815 952 b 1006 759 913 907 975 841 "},"8":{"ha":1381,"x_min":0,"x_max":0,"o":"m 1290 463 b 1296 454 1292 460 1294 457 b 1297 451 1296 453 1296 452 b 1302 441 1299 448 1300 445 b 1307 431 1304 438 1305 434 b 1324 379 1314 414 1320 397 b 1326 370 1325 376 1325 373 b 1330 346 1327 362 1329 354 b 1332 312 1331 335 1332 323 b 1331 295 1332 306 1332 300 b 1328 261 1331 283 1329 272 b 1324 245 1327 256 1325 250 b 1324 243 1324 244 1324 244 b 1240 92 1310 185 1281 133 b 1089 8 1199 51 1147 22 b 1050 2 1076 5 1063 3 b 1017 0 1039 1 1028 0 l 364 0 b 331 2 353 0 342 1 b 292 8 318 3 305 5 b 57 243 176 35 84 127 b 52 269 55 252 53 260 b 50 290 51 276 50 283 b 49 300 49 293 49 297 b 49 311 49 304 49 307 b 52 353 49 325 50 339 b 57 379 53 361 55 370 b 60 392 58 383 59 387 b 61 395 61 393 61 394 b 64 405 62 399 63 402 b 66 409 65 406 65 407 b 70 421 67 413 68 417 b 70 422 70 421 70 422 b 75 433 72 426 74 430 b 77 437 76 435 76 436 b 81 446 78 440 80 443 b 83 449 82 447 82 448 b 89 461 85 453 87 457 b 90 462 89 461 89 462 b 96 472 91 465 94 469 b 97 475 96 473 97 474 b 104 484 99 478 101 481 b 104 486 104 485 104 485 b 104 487 104 486 104 487 b 97 496 101 490 99 493 b 96 499 97 497 96 498 b 89 510 93 503 91 506 b 89 511 89 510 89 510 b 83 522 87 514 85 518 b 81 526 82 523 82 524 b 77 535 80 528 78 532 b 75 538 76 536 76 537 b 70 549 73 542 72 546 b 70 550 70 550 70 550 b 66 563 68 555 67 559 b 64 567 65 564 65 565 b 61 576 63 570 62 573 b 60 580 61 577 61 579 b 57 593 59 584 58 589 b 52 619 55 601 53 610 b 50 640 51 626 50 633 b 49 650 49 643 49 646 b 49 661 49 654 49 657 b 52 702 49 675 50 689 b 54 715 53 707 53 711 b 57 728 55 720 56 724 b 174 908 74 801 116 864 b 292 963 208 934 248 953 b 295 964 293 963 294 964 b 364 971 317 969 340 971 l 1017 971 b 1089 963 1042 971 1066 969 b 1141 946 1107 959 1125 953 b 1240 879 1178 930 1212 907 b 1244 875 1241 878 1242 877 b 1251 867 1246 873 1249 870 b 1265 851 1256 862 1260 857 b 1302 791 1279 832 1292 812 b 1307 781 1304 787 1305 784 b 1324 728 1314 764 1320 746 b 1326 720 1325 726 1325 723 b 1330 695 1327 712 1329 704 b 1332 670 1331 687 1331 679 b 1332 662 1332 667 1332 664 b 1331 644 1332 656 1332 650 l 1331 644 b 1328 611 1331 633 1329 622 b 1324 595 1327 605 1325 600 b 1324 593 1324 594 1324 593 b 1320 579 1323 588 1322 584 b 1320 578 1320 579 1320 578 b 1316 565 1319 573 1317 569 b 1315 564 1316 565 1316 564 b 1305 538 1312 555 1309 546 b 1304 535 1305 537 1305 536 b 1299 525 1303 532 1301 528 b 1298 523 1299 524 1299 523 b 1285 499 1294 515 1290 507 b 1284 497 1284 498 1284 498 b 1277 487 1281 493 1279 490 b 1276 486 1277 486 1276 486 b 1276 486 1276 486 1276 486 b 1283 476 1279 482 1281 479 b 1284 474 1283 475 1283 475 b 1290 464 1286 471 1288 468 b 1290 463 1290 464 1290 464 m 385 728 b 295 661 343 728 307 700 b 321 619 300 644 309 630 b 385 593 338 603 360 593 l 995 593 b 1060 619 1020 593 1043 603 b 1085 661 1072 630 1081 644 b 995 728 1074 700 1038 728 l 385 728 m 995 243 b 1085 311 1038 243 1074 272 b 1060 353 1081 327 1072 341 b 995 379 1043 369 1020 379 l 385 379 b 321 353 360 379 338 369 b 295 311 309 341 300 327 b 385 243 307 272 343 243 "},"9":{"ha":1421,"x_min":0,"x_max":0,"o":"m 1372 752 l 1372 0 l 1117 0 l 1117 189 l 49 189 l 49 966 l 1061 966 b 1136 957 1087 966 1112 963 b 1199 936 1158 952 1179 945 b 1370 752 1277 900 1339 833 m 1117 690 b 1039 730 1100 715 1071 730 l 303 730 l 303 415 l 1117 415 "},"\u0000":{"ha":0,"x_min":0,"x_max":0,"o":""},"\n":{"ha":0,"x_min":0,"x_max":0,"o":""},"\r":{"ha":0,"x_min":0,"x_max":0,"o":""}," ":{"ha":676,"x_min":0,"x_max":0,"o":""},"!":{"ha":425,"x_min":0,"x_max":0,"o":"m 376 969 l 376 381 l 49 381 l 49 969 m 49 276 l 376 276 l 376 154 b 222 0 376 69 307 0 l 49 0 l 49 276 "},"#":{"ha":1067,"x_min":0,"x_max":0,"o":"m 792 604 l 792 381 l 1018 381 l 1018 182 l 792 182 l 792 0 l 593 0 l 593 182 l 457 182 l 457 0 l 259 0 l 259 182 l 49 182 l 49 381 l 259 381 l 259 604 l 49 604 l 49 803 l 258 803 l 258 969 l 457 969 l 457 803 l 593 803 l 593 969 l 792 969 l 792 803 l 1018 803 l 1018 604 m 593 604 l 457 604 l 457 381 l 593 381 "},"'":{"ha":299,"x_min":0,"x_max":0,"o":"m 250 1011 l 250 889 b 97 735 250 804 182 735 l 49 735 l 49 1011 "},"‘":{"ha":299,"x_min":0,"x_max":0,"o":"m 49 1011 l 49 735 l 97 735 b 250 889 182 735 250 804 l 250 1011 "},"’":{"ha":299,"x_min":0,"x_max":0,"o":"m 250 1011 l 250 889 b 97 735 250 804 182 735 l 49 735 l 49 1011 "},".":{"ha":401,"x_min":0,"x_max":0,"o":"m 352 270 l 352 0 l 49 0 l 49 270 "},"/":{"ha":694,"x_min":0,"x_max":0,"o":"m 402 972 l 646 972 l 292 0 l 49 0 "},"=":{"ha":907,"x_min":0,"x_max":0,"o":"m 858 524 l 49 524 l 49 723 l 616 723 l 616 723 l 858 723 m 858 218 l 616 218 l 616 218 l 49 218 l 49 417 l 858 417 "},"?":{"ha":900,"x_min":0,"x_max":0,"o":"m 851 972 l 851 466 b 716 330 851 391 790 330 l 526 330 l 526 227 l 283 227 l 283 330 l 283 330 l 283 573 l 608 573 l 608 729 l 49 729 l 49 972 l 526 972 l 526 972 l 608 972 l 608 972 m 283 0 l 283 132 l 526 132 l 526 0 "},"A":{"ha":1188,"x_min":0,"x_max":0,"o":"m 1201 0 l 938 0 l 786 365 l 685 608 l 635 729 l 552 729 l 502 608 l 401 365 l 249 0 l -14 0 l 138 365 l 239 608 l 289 729 l 390 972 l 561 972 l 561 972 l 626 972 l 626 972 l 798 972 l 898 729 l 949 608 l 1050 365 "},"a":{"ha":1188,"x_min":0,"x_max":0,"o":"m 1050 365 l 949 608 l 898 729 l 798 972 l 626 972 l 626 972 l 561 972 l 561 972 l 390 972 l 289 729 l 239 608 l 138 365 l -14 0 l 249 0 l 401 365 l 502 608 l 552 729 l 635 729 l 685 608 l 786 365 l 938 0 l 1201 0 "},"À":{"ha":1188,"x_min":0,"x_max":0,"o":"m 1201 0 l 938 0 l 786 365 l 685 608 l 635 729 l 552 729 l 502 608 l 401 365 l 249 0 l -14 0 l 138 365 l 239 608 l 289 729 l 390 972 l 561 972 l 561 972 l 626 972 l 626 972 l 798 972 l 898 729 l 949 608 l 1050 365 "},"Á":{"ha":1188,"x_min":0,"x_max":0,"o":"m 1050 365 l 949 608 l 898 729 l 798 972 l 626 972 l 626 972 l 561 972 l 561 972 l 390 972 l 289 729 l 239 608 l 138 365 l -14 0 l 249 0 l 401 365 l 502 608 l 552 729 l 635 729 l 685 608 l 786 365 l 938 0 l 1201 0 "},"Â":{"ha":1188,"x_min":0,"x_max":0,"o":"m 1201 0 l 938 0 l 786 365 l 685 608 l 635 729 l 552 729 l 502 608 l 401 365 l 249 0 l -14 0 l 138 365 l 239 608 l 289 729 l 390 972 l 561 972 l 561 972 l 626 972 l 626 972 l 798 972 l 898 729 l 949 608 l 1050 365 "},"Ã":{"ha":1188,"x_min":0,"x_max":0,"o":"m 1050 365 l 949 608 l 898 729 l 798 972 l 626 972 l 626 972 l 561 972 l 561 972 l 390 972 l 289 729 l 239 608 l 138 365 l -14 0 l 249 0 l 401 365 l 502 608 l 552 729 l 635 729 l 685 608 l 786 365 l 938 0 l 1201 0 "},"Ä":{"ha":1188,"x_min":0,"x_max":0,"o":"m 1201 0 l 938 0 l 786 365 l 685 608 l 635 729 l 552 729 l 502 608 l 401 365 l 249 0 l -14 0 l 138 365 l 239 608 l 289 729 l 390 972 l 561 972 l 561 972 l 626 972 l 626 972 l 798 972 l 898 729 l 949 608 l 1050 365 "},"Å":{"ha":1188,"x_min":0,"x_max":0,"o":"m 1050 365 l 949 608 l 898 729 l 798 972 l 626 972 l 626 972 l 561 972 l 561 972 l 390 972 l 289 729 l 239 608 l 138 365 l -14 0 l 249 0 l 401 365 l 502 608 l 552 729 l 635 729 l 685 608 l 786 365 l 938 0 l 1201 0 "},"à":{"ha":1188,"x_min":0,"x_max":0,"o":"m 1201 0 l 938 0 l 786 365 l 685 608 l 635 729 l 552 729 l 502 608 l 401 365 l 249 0 l -14 0 l 138 365 l 239 608 l 289 729 l 390 972 l 561 972 l 561 972 l 626 972 l 626 972 l 798 972 l 898 729 l 949 608 l 1050 365 "},"á":{"ha":1188,"x_min":0,"x_max":0,"o":"m 1050 365 l 949 608 l 898 729 l 798 972 l 626 972 l 626 972 l 561 972 l 561 972 l 390 972 l 289 729 l 239 608 l 138 365 l -14 0 l 249 0 l 401 365 l 502 608 l 552 729 l 635 729 l 685 608 l 786 365 l 938 0 l 1201 0 "},"â":{"ha":1188,"x_min":0,"x_max":0,"o":"m 1201 0 l 938 0 l 786 365 l 685 608 l 635 729 l 552 729 l 502 608 l 401 365 l 249 0 l -14 0 l 138 365 l 239 608 l 289 729 l 390 972 l 561 972 l 561 972 l 626 972 l 626 972 l 798 972 l 898 729 l 949 608 l 1050 365 "},"ã":{"ha":1188,"x_min":0,"x_max":0,"o":"m 1050 365 l 949 608 l 898 729 l 798 972 l 626 972 l 626 972 l 561 972 l 561 972 l 390 972 l 289 729 l 239 608 l 138 365 l -14 0 l 249 0 l 401 365 l 502 608 l 552 729 l 635 729 l 685 608 l 786 365 l 938 0 l 1201 0 "},"ä":{"ha":1188,"x_min":0,"x_max":0,"o":"m 1201 0 l 938 0 l 786 365 l 685 608 l 635 729 l 552 729 l 502 608 l 401 365 l 249 0 l -14 0 l 138 365 l 239 608 l 289 729 l 390 972 l 561 972 l 561 972 l 626 972 l 626 972 l 798 972 l 898 729 l 949 608 l 1050 365 "},"å":{"ha":1188,"x_min":0,"x_max":0,"o":"m 1050 365 l 949 608 l 898 729 l 798 972 l 626 972 l 626 972 l 561 972 l 561 972 l 390 972 l 289 729 l 239 608 l 138 365 l -14 0 l 249 0 l 401 365 l 502 608 l 552 729 l 635 729 l 685 608 l 786 365 l 938 0 l 1201 0 "},"B":{"ha":1294,"x_min":0,"x_max":0,"o":"m 1208 487 b 1262 360 1235 450 1254 407 b 1267 307 1265 343 1267 325 b 1261 244 1267 285 1265 264 b 988 1 1234 114 1124 14 b 960 0 979 0 970 0 b 932 1 951 0 942 0 l 292 1 l 292 0 l 49 0 l 49 974 l 960 974 b 1260 730 1108 974 1231 869 b 1267 667 1265 710 1267 689 b 1260 603 1267 645 1265 624 b 1208 487 1251 561 1233 521 m 973 244 b 1024 307 1002 250 1024 276 b 994 360 1024 329 1012 349 l 292 360 l 292 244 l 973 244 m 992 612 b 1024 667 1011 623 1024 643 b 960 730 1024 702 995 730 l 292 730 l 292 603 l 960 603 b 992 612 972 603 982 606 "},"b":{"ha":1294,"x_min":0,"x_max":0,"o":"m 1208 487 b 1260 603 1233 521 1251 561 b 1267 667 1265 624 1267 645 b 1260 730 1267 689 1265 710 b 960 974 1231 869 1108 974 l 49 974 l 49 0 l 292 0 l 292 1 l 932 1 b 960 0 942 0 951 0 b 988 1 970 0 979 0 b 1261 244 1124 14 1234 114 b 1267 307 1265 264 1267 285 b 1262 360 1267 325 1265 343 b 1208 487 1254 407 1235 450 m 973 244 l 292 244 l 292 360 l 994 360 b 1024 307 1012 349 1024 329 b 973 244 1024 276 1002 250 m 992 612 b 960 603 982 606 972 603 l 292 603 l 292 730 l 960 730 b 1024 667 995 730 1024 702 b 992 612 1024 643 1011 623 "},"C":{"ha":1281,"x_min":0,"x_max":0,"o":"m 1011 547 l 1011 636 b 918 729 1011 687 969 729 l 282 729 l 282 337 b 375 243 282 285 324 243 l 1254 243 l 1254 0 l 354 0 b 321 2 343 0 332 1 b 282 8 308 3 295 5 b 47 243 166 35 74 127 b 42 269 45 252 44 260 b 39 315 40 284 39 299 l 39 972 l 939 972 b 1011 964 964 972 988 969 b 1246 729 1127 937 1219 845 b 1254 657 1251 706 1254 682 l 1254 547 "},"c":{"ha":1281,"x_min":0,"x_max":0,"o":"m 1254 547 l 1254 657 b 1246 729 1254 682 1251 706 b 1011 964 1219 845 1127 937 b 939 972 988 969 964 972 l 39 972 l 39 315 b 42 269 39 299 40 284 b 47 243 44 260 45 252 b 282 8 74 127 166 35 b 321 2 295 5 308 3 b 354 0 332 1 343 0 l 1254 0 l 1254 243 l 375 243 b 282 337 324 243 282 285 l 282 729 l 918 729 b 1011 636 969 729 1011 687 l 1011 547 "},"Ç":{"ha":1281,"x_min":0,"x_max":0,"o":"m 1011 547 l 1011 636 b 918 729 1011 687 969 729 l 282 729 l 282 337 b 375 243 282 285 324 243 l 1254 243 l 1254 0 l 354 0 b 321 2 343 0 332 1 b 282 8 308 3 295 5 b 47 243 166 35 74 127 b 42 269 45 252 44 260 b 39 315 40 284 39 299 l 39 972 l 939 972 b 1011 964 964 972 988 969 b 1246 729 1127 937 1219 845 b 1254 657 1251 706 1254 682 l 1254 547 "},"ç":{"ha":1281,"x_min":0,"x_max":0,"o":"m 1254 547 l 1254 657 b 1246 729 1254 682 1251 706 b 1011 964 1219 845 1127 937 b 939 972 988 969 964 972 l 39 972 l 39 315 b 42 269 39 299 40 284 b 47 243 44 260 45 252 b 282 8 74 127 166 35 b 321 2 295 5 308 3 b 354 0 332 1 343 0 l 1254 0 l 1254 243 l 375 243 b 282 337 324 243 282 285 l 282 729 l 918 729 b 1011 636 969 729 1011 687 l 1011 547 "},"D":{"ha":1294,"x_min":0,"x_max":0,"o":"m 1021 964 b 1264 657 1160 931 1264 806 l 1264 315 b 1256 245 1264 291 1261 267 b 1021 8 1229 128 1138 36 b 982 2 1008 5 995 3 b 949 0 971 1 960 0 l 49 0 l 49 972 l 949 972 b 1021 964 974 972 998 969 m 1021 636 b 927 729 1021 687 979 729 l 292 729 l 292 243 l 927 243 b 1021 337 979 243 1021 285 "},"d":{"ha":1294,"x_min":0,"x_max":0,"o":"m 1021 964 b 949 972 998 969 974 972 l 49 972 l 49 0 l 949 0 b 982 2 960 0 971 1 b 1021 8 995 3 1008 5 b 1256 245 1138 36 1229 128 b 1264 315 1261 267 1264 291 l 1264 657 b 1021 964 1264 806 1160 931 m 1021 337 b 927 243 1021 285 979 243 l 292 243 l 292 729 l 927 729 b 1021 636 979 729 1021 687 "},"E":{"ha":1313,"x_min":0,"x_max":0,"o":"m 292 729 l 292 587 l 1264 587 l 1264 389 l 292 389 l 292 243 l 1264 243 l 1264 0 l 49 0 l 49 972 l 1264 972 l 1264 729 "},"e":{"ha":1313,"x_min":0,"x_max":0,"o":"m 1264 729 l 1264 972 l 49 972 l 49 0 l 1264 0 l 1264 243 l 292 243 l 292 389 l 1264 389 l 1264 587 l 292 587 l 292 729 "},"È":{"ha":1313,"x_min":0,"x_max":0,"o":"m 292 729 l 292 587 l 1264 587 l 1264 389 l 292 389 l 292 243 l 1264 243 l 1264 0 l 49 0 l 49 972 l 1264 972 l 1264 729 "},"É":{"ha":1313,"x_min":0,"x_max":0,"o":"m 1264 729 l 1264 972 l 49 972 l 49 0 l 1264 0 l 1264 243 l 292 243 l 292 389 l 1264 389 l 1264 587 l 292 587 l 292 729 "},"Ê":{"ha":1313,"x_min":0,"x_max":0,"o":"m 292 729 l 292 587 l 1264 587 l 1264 389 l 292 389 l 292 243 l 1264 243 l 1264 0 l 49 0 l 49 972 l 1264 972 l 1264 729 "},"Ë":{"ha":1313,"x_min":0,"x_max":0,"o":"m 1264 729 l 1264 972 l 49 972 l 49 0 l 1264 0 l 1264 243 l 292 243 l 292 389 l 1264 389 l 1264 587 l 292 587 l 292 729 "},"è":{"ha":1313,"x_min":0,"x_max":0,"o":"m 292 729 l 292 587 l 1264 587 l 1264 389 l 292 389 l 292 243 l 1264 243 l 1264 0 l 49 0 l 49 972 l 1264 972 l 1264 729 "},"é":{"ha":1313,"x_min":0,"x_max":0,"o":"m 1264 729 l 1264 972 l 49 972 l 49 0 l 1264 0 l 1264 243 l 292 243 l 292 389 l 1264 389 l 1264 587 l 292 587 l 292 729 "},"ê":{"ha":1313,"x_min":0,"x_max":0,"o":"m 292 729 l 292 587 l 1264 587 l 1264 389 l 292 389 l 292 243 l 1264 243 l 1264 0 l 49 0 l 49 972 l 1264 972 l 1264 729 "},"ë":{"ha":1313,"x_min":0,"x_max":0,"o":"m 1264 729 l 1264 972 l 49 972 l 49 0 l 1264 0 l 1264 243 l 292 243 l 292 389 l 1264 389 l 1264 587 l 292 587 l 292 729 "},"F":{"ha":1274,"x_min":0,"x_max":0,"o":"m 1264 547 l 1021 547 l 1021 686 b 977 729 1021 710 1001 729 l 292 729 l 292 486 l 778 486 l 778 243 l 292 243 l 292 0 l 49 0 l 49 972 l 1170 972 b 1264 879 1222 972 1264 930 "},"f":{"ha":1274,"x_min":0,"x_max":0,"o":"m 1264 879 b 1170 972 1264 930 1222 972 l 49 972 l 49 0 l 292 0 l 292 243 l 778 243 l 778 486 l 292 486 l 292 729 l 977 729 b 1021 686 1001 729 1021 710 l 1021 547 l 1264 547 "},"G":{"ha":1310,"x_min":0,"x_max":0,"o":"m 1170 972 b 1264 879 1222 972 1264 930 l 1264 608 l 1021 608 l 1021 670 b 962 729 1021 703 995 729 l 292 729 l 292 243 l 1021 243 l 1021 399 l 899 486 l 1264 486 l 1264 0 l 49 0 l 49 972 l 1170 972 "},"g":{"ha":1310,"x_min":0,"x_max":0,"o":"m 1170 972 l 49 972 l 49 0 l 1264 0 l 1264 486 l 899 486 l 1021 399 l 1021 243 l 292 243 l 292 729 l 962 729 b 1021 670 995 729 1021 703 l 1021 608 l 1264 608 l 1264 879 b 1170 972 1264 930 1222 972 "},"H":{"ha":1313,"x_min":0,"x_max":0,"o":"m 1264 972 l 1264 0 l 1021 0 l 1021 365 l 292 365 l 292 0 l 49 0 l 49 972 l 292 972 l 292 608 l 1021 608 l 1021 972 "},"h":{"ha":1313,"x_min":0,"x_max":0,"o":"m 1021 972 l 1021 608 l 292 608 l 292 972 l 49 972 l 49 0 l 292 0 l 292 365 l 1021 365 l 1021 0 l 1264 0 l 1264 972 "},"I":{"ha":340,"x_min":0,"x_max":0,"o":"m 49 0 l 49 972 l 292 972 l 292 0 "},"i":{"ha":340,"x_min":0,"x_max":0,"o":"m 292 0 l 292 972 l 49 972 l 49 0 "},"Ì":{"ha":340,"x_min":0,"x_max":0,"o":"m 49 0 l 49 972 l 292 972 l 292 0 "},"Í":{"ha":340,"x_min":0,"x_max":0,"o":"m 292 0 l 292 972 l 49 972 l 49 0 "},"Î":{"ha":340,"x_min":0,"x_max":0,"o":"m 49 0 l 49 972 l 292 972 l 292 0 "},"Ï":{"ha":340,"x_min":0,"x_max":0,"o":"m 292 0 l 292 972 l 49 972 l 49 0 "},"ì":{"ha":340,"x_min":0,"x_max":0,"o":"m 49 0 l 49 972 l 292 972 l 292 0 "},"í":{"ha":340,"x_min":0,"x_max":0,"o":"m 292 0 l 292 972 l 49 972 l 49 0 "},"î":{"ha":340,"x_min":0,"x_max":0,"o":"m 49 0 l 49 972 l 292 972 l 292 0 "},"ï":{"ha":340,"x_min":0,"x_max":0,"o":"m 292 0 l 292 972 l 49 972 l 49 0 "},"J":{"ha":1271,"x_min":0,"x_max":0,"o":"m 1222 972 l 1222 0 l 322 0 b 289 2 311 0 300 1 b 250 8 276 3 263 5 b 15 243 134 35 42 127 b 10 269 13 252 12 260 b 7 315 8 284 7 299 l 7 486 l 250 486 l 250 337 b 344 243 250 285 292 243 l 979 243 l 979 729 l 372 729 l 372 972 "},"j":{"ha":1271,"x_min":0,"x_max":0,"o":"m 372 972 l 372 729 l 979 729 l 979 243 l 344 243 b 250 337 292 243 250 285 l 250 486 l 7 486 l 7 315 b 10 269 7 299 8 284 b 15 243 12 260 13 252 b 250 8 42 127 134 35 b 289 2 263 5 276 3 b 322 0 300 1 311 0 l 1222 0 l 1222 972 "},"K":{"ha":1250,"x_min":0,"x_max":0,"o":"m 1264 0 l 907 0 l 483 394 l 292 252 l 292 2 l 49 2 l 49 972 l 292 972 l 292 555 l 302 562 l 500 709 l 855 972 l 1263 972 l 681 541 "},"k":{"ha":1250,"x_min":0,"x_max":0,"o":"m 681 541 l 1263 972 l 855 972 l 500 709 l 302 562 l 292 555 l 292 972 l 49 972 l 49 2 l 292 2 l 292 252 l 483 394 l 907 0 l 1264 0 "},"L":{"ha":1260,"x_min":0,"x_max":0,"o":"m 1264 243 l 1264 0 l 49 0 l 49 972 l 292 972 l 292 243 "},"l":{"ha":1260,"x_min":0,"x_max":0,"o":"m 292 243 l 292 972 l 49 972 l 49 0 l 1264 0 l 1264 243 "},"M":{"ha":1313,"x_min":0,"x_max":0,"o":"m 1264 972 l 1264 729 l 1264 729 l 1264 0 l 1021 0 l 1021 634 l 781 395 l 525 395 l 292 628 l 292 0 l 49 0 l 49 729 l 49 729 l 49 972 l 292 972 l 292 972 l 535 729 l 653 611 l 772 729 l 1015 972 l 1021 978 l 1021 972 "},"m":{"ha":1313,"x_min":0,"x_max":0,"o":"m 1021 972 l 1021 978 l 1015 972 l 772 729 l 653 611 l 535 729 l 292 972 l 292 972 l 49 972 l 49 729 l 49 729 l 49 0 l 292 0 l 292 628 l 525 395 l 781 395 l 1021 634 l 1021 0 l 1264 0 l 1264 729 l 1264 729 l 1264 972 "},"N":{"ha":1313,"x_min":0,"x_max":0,"o":"m 1264 972 l 1264 0 l 970 0 l 292 678 l 292 0 l 49 0 l 49 972 l 341 972 l 1021 292 l 1021 972 "},"n":{"ha":1313,"x_min":0,"x_max":0,"o":"m 1021 972 l 1021 292 l 341 972 l 49 972 l 49 0 l 292 0 l 292 678 l 970 0 l 1264 0 l 1264 972 "},"Ñ":{"ha":1313,"x_min":0,"x_max":0,"o":"m 1264 972 l 1264 0 l 970 0 l 292 678 l 292 0 l 49 0 l 49 972 l 341 972 l 1021 292 l 1021 972 "},"ñ":{"ha":1313,"x_min":0,"x_max":0,"o":"m 1021 972 l 1021 292 l 341 972 l 49 972 l 49 0 l 292 0 l 292 678 l 970 0 l 1264 0 l 1264 972 "},"O":{"ha":1276,"x_min":0,"x_max":0,"o":"m 1238 729 b 1246 657 1243 706 1246 682 l 1246 315 b 1238 245 1246 291 1243 267 b 1238 243 1238 244 1238 244 b 1003 8 1210 127 1119 35 b 964 2 990 5 977 3 b 931 0 953 1 942 0 l 345 0 b 313 2 334 0 323 1 b 274 8 299 3 286 5 b 39 243 157 35 66 127 b 34 269 37 252 35 260 b 31 315 32 284 31 299 l 31 657 b 34 703 31 673 32 688 b 39 729 35 712 37 721 b 274 964 66 845 157 937 b 277 965 275 964 276 964 b 345 972 299 970 322 972 l 931 972 b 1003 964 956 972 980 969 b 1238 729 1119 937 1210 845 m 909 243 b 1003 337 961 243 1003 285 l 1003 636 b 909 729 1003 687 961 729 l 367 729 b 274 636 315 729 274 687 l 274 337 b 367 243 274 285 315 243 "},"o":{"ha":1276,"x_min":0,"x_max":0,"o":"m 1238 729 b 1003 964 1210 845 1119 937 b 931 972 980 969 956 972 l 345 972 b 277 965 322 972 299 970 b 274 964 276 964 275 964 b 39 729 157 937 66 845 b 34 703 37 721 35 712 b 31 657 32 688 31 673 l 31 315 b 34 269 31 299 32 284 b 39 243 35 260 37 252 b 274 8 66 127 157 35 b 313 2 286 5 299 3 b 345 0 323 1 334 0 l 931 0 b 964 2 942 0 953 1 b 1003 8 977 3 990 5 b 1238 243 1119 35 1210 127 b 1238 245 1238 244 1238 244 b 1246 315 1243 267 1246 291 l 1246 657 b 1238 729 1246 682 1243 706 m 367 243 b 274 337 315 243 274 285 l 274 636 b 367 729 274 687 315 729 l 909 729 b 1003 636 961 729 1003 687 l 1003 337 b 909 243 1003 285 961 243 "},"Ò":{"ha":1276,"x_min":0,"x_max":0,"o":"m 1238 729 b 1246 657 1243 706 1246 682 l 1246 315 b 1238 245 1246 291 1243 267 b 1238 243 1238 244 1238 244 b 1003 8 1210 127 1119 35 b 964 2 990 5 977 3 b 931 0 953 1 942 0 l 345 0 b 313 2 334 0 323 1 b 274 8 299 3 286 5 b 39 243 157 35 66 127 b 34 269 37 252 35 260 b 31 315 32 284 31 299 l 31 657 b 34 703 31 673 32 688 b 39 729 35 712 37 721 b 274 964 66 845 157 937 b 277 965 275 964 276 964 b 345 972 299 970 322 972 l 931 972 b 1003 964 956 972 980 969 b 1238 729 1119 937 1210 845 m 909 243 b 1003 337 961 243 1003 285 l 1003 636 b 909 729 1003 687 961 729 l 367 729 b 274 636 315 729 274 687 l 274 337 b 367 243 274 285 315 243 "},"Ó":{"ha":1276,"x_min":0,"x_max":0,"o":"m 1238 729 b 1003 964 1210 845 1119 937 b 931 972 980 969 956 972 l 345 972 b 277 965 322 972 299 970 b 274 964 276 964 275 964 b 39 729 157 937 66 845 b 34 703 37 721 35 712 b 31 657 32 688 31 673 l 31 315 b 34 269 31 299 32 284 b 39 243 35 260 37 252 b 274 8 66 127 157 35 b 313 2 286 5 299 3 b 345 0 323 1 334 0 l 931 0 b 964 2 942 0 953 1 b 1003 8 977 3 990 5 b 1238 243 1119 35 1210 127 b 1238 245 1238 244 1238 244 b 1246 315 1243 267 1246 291 l 1246 657 b 1238 729 1246 682 1243 706 m 367 243 b 274 337 315 243 274 285 l 274 636 b 367 729 274 687 315 729 l 909 729 b 1003 636 961 729 1003 687 l 1003 337 b 909 243 1003 285 961 243 "},"Ô":{"ha":1276,"x_min":0,"x_max":0,"o":"m 1238 729 b 1246 657 1243 706 1246 682 l 1246 315 b 1238 245 1246 291 1243 267 b 1238 243 1238 244 1238 244 b 1003 8 1210 127 1119 35 b 964 2 990 5 977 3 b 931 0 953 1 942 0 l 345 0 b 313 2 334 0 323 1 b 274 8 299 3 286 5 b 39 243 157 35 66 127 b 34 269 37 252 35 260 b 31 315 32 284 31 299 l 31 657 b 34 703 31 673 32 688 b 39 729 35 712 37 721 b 274 964 66 845 157 937 b 277 965 275 964 276 964 b 345 972 299 970 322 972 l 931 972 b 1003 964 956 972 980 969 b 1238 729 1119 937 1210 845 m 909 243 b 1003 337 961 243 1003 285 l 1003 636 b 909 729 1003 687 961 729 l 367 729 b 274 636 315 729 274 687 l 274 337 b 367 243 274 285 315 243 "},"Õ":{"ha":1276,"x_min":0,"x_max":0,"o":"m 1238 729 b 1003 964 1210 845 1119 937 b 931 972 980 969 956 972 l 345 972 b 277 965 322 972 299 970 b 274 964 276 964 275 964 b 39 729 157 937 66 845 b 34 703 37 721 35 712 b 31 657 32 688 31 673 l 31 315 b 34 269 31 299 32 284 b 39 243 35 260 37 252 b 274 8 66 127 157 35 b 313 2 286 5 299 3 b 345 0 323 1 334 0 l 931 0 b 964 2 942 0 953 1 b 1003 8 977 3 990 5 b 1238 243 1119 35 1210 127 b 1238 245 1238 244 1238 244 b 1246 315 1243 267 1246 291 l 1246 657 b 1238 729 1246 682 1243 706 m 367 243 b 274 337 315 243 274 285 l 274 636 b 367 729 274 687 315 729 l 909 729 b 1003 636 961 729 1003 687 l 1003 337 b 909 243 1003 285 961 243 "},"Ö":{"ha":1276,"x_min":0,"x_max":0,"o":"m 1238 729 b 1246 657 1243 706 1246 682 l 1246 315 b 1238 245 1246 291 1243 267 b 1238 243 1238 244 1238 244 b 1003 8 1210 127 1119 35 b 964 2 990 5 977 3 b 931 0 953 1 942 0 l 345 0 b 313 2 334 0 323 1 b 274 8 299 3 286 5 b 39 243 157 35 66 127 b 34 269 37 252 35 260 b 31 315 32 284 31 299 l 31 657 b 34 703 31 673 32 688 b 39 729 35 712 37 721 b 274 964 66 845 157 937 b 277 965 275 964 276 964 b 345 972 299 970 322 972 l 931 972 b 1003 964 956 972 980 969 b 1238 729 1119 937 1210 845 m 909 243 b 1003 337 961 243 1003 285 l 1003 636 b 909 729 1003 687 961 729 l 367 729 b 274 636 315 729 274 687 l 274 337 b 367 243 274 285 315 243 "},"Ø":{"ha":1276,"x_min":0,"x_max":0,"o":"m 1238 729 b 1003 964 1210 845 1119 937 b 931 972 980 969 956 972 l 345 972 b 277 965 322 972 299 970 b 274 964 276 964 275 964 b 39 729 157 937 66 845 b 34 703 37 721 35 712 b 31 657 32 688 31 673 l 31 315 b 34 269 31 299 32 284 b 39 243 35 260 37 252 b 274 8 66 127 157 35 b 313 2 286 5 299 3 b 345 0 323 1 334 0 l 931 0 b 964 2 942 0 953 1 b 1003 8 977 3 990 5 b 1238 243 1119 35 1210 127 b 1238 245 1238 244 1238 244 b 1246 315 1243 267 1246 291 l 1246 657 b 1238 729 1246 682 1243 706 m 367 243 b 274 337 315 243 274 285 l 274 636 b 367 729 274 687 315 729 l 909 729 b 1003 636 961 729 1003 687 l 1003 337 b 909 243 1003 285 961 243 "},"ò":{"ha":1276,"x_min":0,"x_max":0,"o":"m 1238 729 b 1246 657 1243 706 1246 682 l 1246 315 b 1238 245 1246 291 1243 267 b 1238 243 1238 244 1238 244 b 1003 8 1210 127 1119 35 b 964 2 990 5 977 3 b 931 0 953 1 942 0 l 345 0 b 313 2 334 0 323 1 b 274 8 299 3 286 5 b 39 243 157 35 66 127 b 34 269 37 252 35 260 b 31 315 32 284 31 299 l 31 657 b 34 703 31 673 32 688 b 39 729 35 712 37 721 b 274 964 66 845 157 937 b 277 965 275 964 276 964 b 345 972 299 970 322 972 l 931 972 b 1003 964 956 972 980 969 b 1238 729 1119 937 1210 845 m 909 243 b 1003 337 961 243 1003 285 l 1003 636 b 909 729 1003 687 961 729 l 367 729 b 274 636 315 729 274 687 l 274 337 b 367 243 274 285 315 243 "},"ó":{"ha":1276,"x_min":0,"x_max":0,"o":"m 1238 729 b 1003 964 1210 845 1119 937 b 931 972 980 969 956 972 l 345 972 b 277 965 322 972 299 970 b 274 964 276 964 275 964 b 39 729 157 937 66 845 b 34 703 37 721 35 712 b 31 657 32 688 31 673 l 31 315 b 34 269 31 299 32 284 b 39 243 35 260 37 252 b 274 8 66 127 157 35 b 313 2 286 5 299 3 b 345 0 323 1 334 0 l 931 0 b 964 2 942 0 953 1 b 1003 8 977 3 990 5 b 1238 243 1119 35 1210 127 b 1238 245 1238 244 1238 244 b 1246 315 1243 267 1246 291 l 1246 657 b 1238 729 1246 682 1243 706 m 367 243 b 274 337 315 243 274 285 l 274 636 b 367 729 274 687 315 729 l 909 729 b 1003 636 961 729 1003 687 l 1003 337 b 909 243 1003 285 961 243 "},"ô":{"ha":1276,"x_min":0,"x_max":0,"o":"m 1238 729 b 1246 657 1243 706 1246 682 l 1246 315 b 1238 245 1246 291 1243 267 b 1238 243 1238 244 1238 244 b 1003 8 1210 127 1119 35 b 964 2 990 5 977 3 b 931 0 953 1 942 0 l 345 0 b 313 2 334 0 323 1 b 274 8 299 3 286 5 b 39 243 157 35 66 127 b 34 269 37 252 35 260 b 31 315 32 284 31 299 l 31 657 b 34 703 31 673 32 688 b 39 729 35 712 37 721 b 274 964 66 845 157 937 b 277 965 275 964 276 964 b 345 972 299 970 322 972 l 931 972 b 1003 964 956 972 980 969 b 1238 729 1119 937 1210 845 m 909 243 b 1003 337 961 243 1003 285 l 1003 636 b 909 729 1003 687 961 729 l 367 729 b 274 636 315 729 274 687 l 274 337 b 367 243 274 285 315 243 "},"õ":{"ha":1276,"x_min":0,"x_max":0,"o":"m 1238 729 b 1003 964 1210 845 1119 937 b 931 972 980 969 956 972 l 345 972 b 277 965 322 972 299 970 b 274 964 276 964 275 964 b 39 729 157 937 66 845 b 34 703 37 721 35 712 b 31 657 32 688 31 673 l 31 315 b 34 269 31 299 32 284 b 39 243 35 260 37 252 b 274 8 66 127 157 35 b 313 2 286 5 299 3 b 345 0 323 1 334 0 l 931 0 b 964 2 942 0 953 1 b 1003 8 977 3 990 5 b 1238 243 1119 35 1210 127 b 1238 245 1238 244 1238 244 b 1246 315 1243 267 1246 291 l 1246 657 b 1238 729 1246 682 1243 706 m 367 243 b 274 337 315 243 274 285 l 274 636 b 367 729 274 687 315 729 l 909 729 b 1003 636 961 729 1003 687 l 1003 337 b 909 243 1003 285 961 243 "},"ö":{"ha":1276,"x_min":0,"x_max":0,"o":"m 1238 729 b 1246 657 1243 706 1246 682 l 1246 315 b 1238 245 1246 291 1243 267 b 1238 243 1238 244 1238 244 b 1003 8 1210 127 1119 35 b 964 2 990 5 977 3 b 931 0 953 1 942 0 l 345 0 b 313 2 334 0 323 1 b 274 8 299 3 286 5 b 39 243 157 35 66 127 b 34 269 37 252 35 260 b 31 315 32 284 31 299 l 31 657 b 34 703 31 673 32 688 b 39 729 35 712 37 721 b 274 964 66 845 157 937 b 277 965 275 964 276 964 b 345 972 299 970 322 972 l 931 972 b 1003 964 956 972 980 969 b 1238 729 1119 937 1210 845 m 909 243 b 1003 337 961 243 1003 285 l 1003 636 b 909 729 1003 687 961 729 l 367 729 b 274 636 315 729 274 687 l 274 337 b 367 243 274 285 315 243 "},"ø":{"ha":1276,"x_min":0,"x_max":0,"o":"m 1238 729 b 1003 964 1210 845 1119 937 b 931 972 980 969 956 972 l 345 972 b 277 965 322 972 299 970 b 274 964 276 964 275 964 b 39 729 157 937 66 845 b 34 703 37 721 35 712 b 31 657 32 688 31 673 l 31 315 b 34 269 31 299 32 284 b 39 243 35 260 37 252 b 274 8 66 127 157 35 b 313 2 286 5 299 3 b 345 0 323 1 334 0 l 931 0 b 964 2 942 0 953 1 b 1003 8 977 3 990 5 b 1238 243 1119 35 1210 127 b 1238 245 1238 244 1238 244 b 1246 315 1243 267 1246 291 l 1246 657 b 1238 729 1246 682 1243 706 m 367 243 b 274 337 315 243 274 285 l 274 636 b 367 729 274 687 315 729 l 909 729 b 1003 636 961 729 1003 687 l 1003 337 b 909 243 1003 285 961 243 "},"P":{"ha":1275,"x_min":0,"x_max":0,"o":"m 1256 729 b 1264 657 1261 706 1264 682 l 1264 558 b 1256 488 1264 534 1261 510 b 1256 486 1256 487 1256 487 b 1021 251 1229 370 1137 278 b 982 245 1008 248 995 246 b 949 243 971 244 960 243 l 292 243 l 292 0 l 49 0 l 49 972 l 949 972 b 1021 964 974 972 998 969 b 1256 729 1137 937 1229 845 m 927 486 b 1021 580 979 486 1021 528 l 1021 636 b 927 729 1021 687 979 729 l 292 729 l 292 486 "},"p":{"ha":1275,"x_min":0,"x_max":0,"o":"m 1256 729 b 1021 964 1229 845 1137 937 b 949 972 998 969 974 972 l 49 972 l 49 0 l 292 0 l 292 243 l 949 243 b 982 245 960 243 971 244 b 1021 251 995 246 1008 248 b 1256 486 1137 278 1229 370 b 1256 488 1256 487 1256 487 b 1264 558 1261 510 1264 534 l 1264 657 b 1256 729 1264 682 1261 706 m 292 486 l 292 729 l 927 729 b 1021 636 979 729 1021 687 l 1021 580 b 927 486 1021 528 979 486 "},"Q":{"ha":1322,"x_min":0,"x_max":0,"o":"m 1307 243 l 1307 0 l 345 0 b 313 2 334 0 323 1 b 274 8 299 3 286 5 b 39 243 157 35 66 127 b 34 269 37 252 35 260 b 31 315 32 284 31 299 l 31 657 b 34 703 31 673 32 688 b 39 729 35 712 37 721 b 274 964 66 845 157 937 b 277 965 275 964 276 964 b 345 972 299 970 322 972 l 931 972 b 1003 964 956 972 980 969 b 1238 729 1119 937 1210 845 b 1246 657 1243 706 1246 682 l 1246 315 b 1238 245 1246 291 1243 267 b 1238 243 1238 244 1238 244 m 909 243 b 1003 337 961 243 1003 285 l 1003 636 b 909 729 1003 687 961 729 l 367 729 b 274 636 315 729 274 687 l 274 337 b 367 243 274 285 315 243 "},"q":{"ha":1322,"x_min":0,"x_max":0,"o":"m 1238 243 b 1238 245 1238 244 1238 244 b 1246 315 1243 267 1246 291 l 1246 657 b 1238 729 1246 682 1243 706 b 1003 964 1210 845 1119 937 b 931 972 980 969 956 972 l 345 972 b 277 965 322 972 299 970 b 274 964 276 964 275 964 b 39 729 157 937 66 845 b 34 703 37 721 35 712 b 31 657 32 688 31 673 l 31 315 b 34 269 31 299 32 284 b 39 243 35 260 37 252 b 274 8 66 127 157 35 b 313 2 286 5 299 3 b 345 0 323 1 334 0 l 1307 0 l 1307 243 m 367 243 b 274 337 315 243 274 285 l 274 636 b 367 729 274 687 315 729 l 909 729 b 1003 636 961 729 1003 687 l 1003 337 b 909 243 1003 285 961 243 "},"R":{"ha":1289,"x_min":0,"x_max":0,"o":"m 1264 0 l 920 0 l 677 243 l 292 243 l 292 0 l 49 0 l 49 972 l 949 972 b 1021 964 974 972 998 969 b 1053 955 1032 961 1042 958 b 1083 942 1063 951 1073 947 b 1103 932 1090 939 1096 936 b 1130 915 1112 927 1121 921 b 1148 902 1136 911 1142 906 b 1238 782 1187 870 1218 829 b 1246 761 1241 775 1244 768 b 1256 729 1250 751 1253 740 b 1264 657 1261 706 1264 682 l 1264 486 b 1021 243 1264 352 1155 243 m 434 486 l 965 486 b 1021 505 986 486 1005 493 l 1021 710 b 965 729 1005 722 986 729 l 292 729 l 292 486 l 434 486 "},"r":{"ha":1289,"x_min":0,"x_max":0,"o":"m 1021 243 b 1264 486 1155 243 1264 352 l 1264 657 b 1256 729 1264 682 1261 706 b 1246 761 1253 740 1250 751 b 1238 782 1244 768 1241 775 b 1148 902 1218 829 1187 870 b 1130 915 1142 906 1136 911 b 1103 932 1121 921 1112 927 b 1083 942 1096 936 1090 939 b 1053 955 1073 947 1063 951 b 1021 964 1042 958 1032 961 b 949 972 998 969 974 972 l 49 972 l 49 0 l 292 0 l 292 243 l 677 243 l 920 0 l 1264 0 m 434 486 l 292 486 l 292 729 l 965 729 b 1021 710 986 729 1005 722 l 1021 505 b 965 486 1005 493 986 486 l 434 486 "},"S":{"ha":1313,"x_min":0,"x_max":0,"o":"m 1264 0 l 49 0 l 49 243 l 1021 243 l 1021 365 l 49 365 l 49 972 l 1264 972 l 1264 729 l 292 729 l 292 580 l 1264 580 "},"s":{"ha":1313,"x_min":0,"x_max":0,"o":"m 1264 580 l 292 580 l 292 729 l 1264 729 l 1264 972 l 49 972 l 49 365 l 1021 365 l 1021 243 l 49 243 l 49 0 l 1264 0 "},"T":{"ha":1207,"x_min":0,"x_max":0,"o":"m 1211 729 l 725 729 l 725 0 l 482 0 l 482 729 l -4 729 l -4 972 l 1211 972 "},"t":{"ha":1207,"x_min":0,"x_max":0,"o":"m 1211 972 l -4 972 l -4 729 l 482 729 l 482 0 l 725 0 l 725 729 l 1211 729 "},"U":{"ha":1304,"x_min":0,"x_max":0,"o":"m 1256 972 l 1256 0 l 1019 0 l 1019 104 l 925 0 l 319 0 b 40 267 176 15 61 126 l 40 972 l 283 972 l 283 337 b 377 243 283 285 325 243 l 1012 243 l 1013 972 "},"u":{"ha":1304,"x_min":0,"x_max":0,"o":"m 1013 972 l 1012 243 l 377 243 b 283 337 325 243 283 285 l 283 972 l 40 972 l 40 267 b 319 0 61 126 176 15 l 925 0 l 1019 104 l 1019 0 l 1256 0 l 1256 972 "},"Ù":{"ha":1304,"x_min":0,"x_max":0,"o":"m 1256 972 l 1256 0 l 1019 0 l 1019 104 l 925 0 l 319 0 b 40 267 176 15 61 126 l 40 972 l 283 972 l 283 337 b 377 243 283 285 325 243 l 1012 243 l 1013 972 "},"Ú":{"ha":1304,"x_min":0,"x_max":0,"o":"m 1013 972 l 1012 243 l 377 243 b 283 337 325 243 283 285 l 283 972 l 40 972 l 40 267 b 319 0 61 126 176 15 l 925 0 l 1019 104 l 1019 0 l 1256 0 l 1256 972 "},"Û":{"ha":1304,"x_min":0,"x_max":0,"o":"m 1256 972 l 1256 0 l 1019 0 l 1019 104 l 925 0 l 319 0 b 40 267 176 15 61 126 l 40 972 l 283 972 l 283 337 b 377 243 283 285 325 243 l 1012 243 l 1013 972 "},"Ü":{"ha":1304,"x_min":0,"x_max":0,"o":"m 1013 972 l 1012 243 l 377 243 b 283 337 325 243 283 285 l 283 972 l 40 972 l 40 267 b 319 0 61 126 176 15 l 925 0 l 1019 104 l 1019 0 l 1256 0 l 1256 972 "},"ù":{"ha":1304,"x_min":0,"x_max":0,"o":"m 1256 972 l 1256 0 l 1019 0 l 1019 104 l 925 0 l 319 0 b 40 267 176 15 61 126 l 40 972 l 283 972 l 283 337 b 377 243 283 285 325 243 l 1012 243 l 1013 972 "},"ú":{"ha":1304,"x_min":0,"x_max":0,"o":"m 1013 972 l 1012 243 l 377 243 b 283 337 325 243 283 285 l 283 972 l 40 972 l 40 267 b 319 0 61 126 176 15 l 925 0 l 1019 104 l 1019 0 l 1256 0 l 1256 972 "},"û":{"ha":1304,"x_min":0,"x_max":0,"o":"m 1256 972 l 1256 0 l 1019 0 l 1019 104 l 925 0 l 319 0 b 40 267 176 15 61 126 l 40 972 l 283 972 l 283 337 b 377 243 283 285 325 243 l 1012 243 l 1013 972 "},"ü":{"ha":1304,"x_min":0,"x_max":0,"o":"m 1013 972 l 1012 243 l 377 243 b 283 337 325 243 283 285 l 283 972 l 40 972 l 40 267 b 319 0 61 126 176 15 l 925 0 l 1019 104 l 1019 0 l 1256 0 l 1256 972 "},"V":{"ha":1182,"x_min":0,"x_max":0,"o":"m 1198 972 l 896 243 l 795 0 l 387 0 l -17 972 l 247 972 l 549 243 l 633 243 l 935 972 "},"v":{"ha":1182,"x_min":0,"x_max":0,"o":"m 935 972 l 633 243 l 549 243 l 247 972 l -17 972 l 387 0 l 795 0 l 896 243 l 1198 972 "},"W":{"ha":1313,"x_min":0,"x_max":0,"o":"m 1264 249 l 1264 6 l 1021 6 l 1021 6 l 778 249 l 659 368 l 541 249 l 298 6 l 292 0 l 292 6 l 49 6 l 49 249 l 49 249 l 49 978 l 292 978 l 292 344 l 531 583 l 787 583 l 1021 350 l 1021 978 l 1264 978 l 1264 249 "},"w":{"ha":1313,"x_min":0,"x_max":0,"o":"m 1264 249 l 1264 978 l 1021 978 l 1021 350 l 787 583 l 531 583 l 292 344 l 292 978 l 49 978 l 49 249 l 49 249 l 49 6 l 292 6 l 292 0 l 298 6 l 541 249 l 659 368 l 778 249 l 1021 6 l 1021 6 l 1264 6 l 1264 249 "},"X":{"ha":1201,"x_min":0,"x_max":0,"o":"m 1213 0 l 883 0 l 600 308 l 318 0 l -12 0 l 435 487 l -10 972 l 320 972 l 600 667 l 881 972 l 1211 972 l 765 487 "},"x":{"ha":1201,"x_min":0,"x_max":0,"o":"m 765 487 l 1211 972 l 881 972 l 600 667 l 320 972 l -10 972 l 435 487 l -12 0 l 318 0 l 600 308 l 883 0 l 1213 0 "},"Y":{"ha":1515,"x_min":0,"x_max":0,"o":"m 1467 972 l 1093 565 l 927 385 l 923 380 l 884 338 l 879 333 l 879 0 l 636 0 l 636 333 l 631 338 l 597 375 l 593 380 l 590 383 l 425 562 l 49 972 l 379 972 l 590 742 l 675 650 l 755 562 l 758 560 l 762 565 l 840 650 l 927 744 l 1137 972 "},"y":{"ha":1515,"x_min":0,"x_max":0,"o":"m 1137 972 l 927 744 l 840 650 l 762 565 l 758 560 l 755 562 l 675 650 l 590 742 l 379 972 l 49 972 l 425 562 l 590 383 l 593 380 l 597 375 l 631 338 l 636 333 l 636 0 l 879 0 l 879 333 l 884 338 l 923 380 l 927 385 l 1093 565 l 1467 972 "},"Ý":{"ha":1515,"x_min":0,"x_max":0,"o":"m 1467 972 l 1093 565 l 927 385 l 923 380 l 884 338 l 879 333 l 879 0 l 636 0 l 636 333 l 631 338 l 597 375 l 593 380 l 590 383 l 425 562 l 49 972 l 379 972 l 590 742 l 675 650 l 755 562 l 758 560 l 762 565 l 840 650 l 927 744 l 1137 972 "},"ý":{"ha":1515,"x_min":0,"x_max":0,"o":"m 1137 972 l 927 744 l 840 650 l 762 565 l 758 560 l 755 562 l 675 650 l 590 742 l 379 972 l 49 972 l 425 562 l 590 383 l 593 380 l 597 375 l 631 338 l 636 333 l 636 0 l 879 0 l 879 333 l 884 338 l 923 380 l 927 385 l 1093 565 l 1467 972 "},"ÿ":{"ha":1515,"x_min":0,"x_max":0,"o":"m 1467 972 l 1093 565 l 927 385 l 923 380 l 884 338 l 879 333 l 879 0 l 636 0 l 636 333 l 631 338 l 597 375 l 593 380 l 590 383 l 425 562 l 49 972 l 379 972 l 590 742 l 675 650 l 755 562 l 758 560 l 762 565 l 840 650 l 927 744 l 1137 972 "},"Ÿ":{"ha":1515,"x_min":0,"x_max":0,"o":"m 1137 972 l 927 744 l 840 650 l 762 565 l 758 560 l 755 562 l 675 650 l 590 742 l 379 972 l 49 972 l 425 562 l 590 383 l 593 380 l 597 375 l 631 338 l 636 333 l 636 0 l 879 0 l 879 333 l 884 338 l 923 380 l 927 385 l 1093 565 l 1467 972 "},"Z":{"ha":1254,"x_min":0,"x_max":0,"o":"m 1232 972 l 1232 729 l 1231 729 l 535 243 l 1232 243 l 1232 0 l 17 0 l 17 177 l 111 243 l 807 729 l 17 729 l 17 972 "},"z":{"ha":1254,"x_min":0,"x_max":0,"o":"m 17 972 l 17 729 l 807 729 l 111 243 l 17 177 l 17 0 l 1232 0 l 1232 243 l 535 243 l 1231 729 l 1232 729 l 1232 972 "},"[":{"ha":463,"x_min":0,"x_max":0,"o":"m 247 199 l 414 199 l 414 0 l 49 0 l 49 199 l 49 199 l 49 727 l 49 727 l 49 969 l 247 969 l 247 969 l 414 969 l 414 771 l 247 771 "},"]":{"ha":463,"x_min":0,"x_max":0,"o":"m 414 727 l 414 199 l 414 199 l 414 0 l 49 0 l 49 199 l 215 199 l 215 771 l 49 771 l 49 969 l 215 969 l 215 969 l 414 969 l 414 727 "}," ":{"ha":676,"x_min":0,"x_max":0,"o":""},"­":{"ha":0,"x_min":0,"x_max":0,"o":""},"":{"ha":2296,"x_min":0,"x_max":0,"o":"m 1993 964 b 2239 718 2114 935 2210 839 b 2247 643 2244 694 2247 669 l 2247 330 b 2239 256 2247 304 2244 280 b 2238 254 2239 256 2239 255 b 1993 9 2210 133 2114 37 b 1952 2 1979 6 1966 3 b 1918 0 1941 1 1929 0 l 378 0 b 344 2 367 0 355 1 b 303 9 330 3 316 6 b 57 254 181 37 86 133 b 52 281 55 263 53 272 b 49 330 50 297 49 313 l 49 643 b 52 691 49 659 50 675 b 57 718 53 700 55 709 b 303 964 86 839 181 935 b 306 964 304 964 305 964 b 378 972 330 970 354 972 l 1918 972 b 1993 964 1943 972 1969 969 m 1895 254 b 1993 352 1949 254 1993 298 l 1993 620 b 1895 718 1993 674 1949 718 l 401 718 b 303 620 347 718 303 674 l 303 352 b 401 254 303 298 347 254 "},"":{"ha":2288,"x_min":0,"x_max":0,"o":"m 1985 961 b 2239 640 2130 927 2239 796 l 2239 330 b 2231 256 2239 304 2236 280 b 1985 9 2203 134 2107 37 b 1944 2 1971 6 1958 3 b 1909 0 1932 1 1921 0 l 49 0 l 49 969 l 1909 969 b 1985 961 1935 969 1960 966 m 1985 352 l 1985 665 b 1887 715 1985 719 1941 715 l 303 715 l 303 254 l 1887 254 b 1985 352 1941 254 1985 298 "},"":{"ha":2296,"x_min":0,"x_max":0,"o":"m 2247 0 l 1903 0 l 1660 243 l 292 243 l 292 0 l 49 0 l 49 972 l 1932 972 b 2004 964 1957 972 1981 969 b 2036 955 2015 961 2026 958 b 2066 942 2046 951 2057 947 b 2086 932 2073 939 2080 936 b 2113 915 2095 927 2105 921 b 2131 902 2119 911 2125 906 b 2221 782 2170 870 2201 829 b 2229 761 2224 775 2227 768 b 2239 729 2233 751 2236 740 b 2247 657 2244 706 2247 682 l 2247 486 b 2004 243 2247 352 2138 243 m 434 486 l 1948 486 b 2004 505 1969 486 1988 493 l 2004 710 b 1948 729 1988 722 1969 729 l 292 729 l 292 486 l 434 486 "},"":{"ha":2256,"x_min":0,"x_max":0,"o":"m 292 729 l 292 587 l 2207 587 l 2207 389 l 292 389 l 292 243 l 2207 243 l 2207 0 l 49 0 l 49 972 l 2207 972 l 2207 729 "},"":{"ha":2296,"x_min":0,"x_max":0,"o":"m 2247 972 l 2247 0 l 2004 0 l 2004 365 l 292 365 l 292 0 l 49 0 l 49 972 l 292 972 l 292 608 l 2004 608 l 2004 972 "},"":{"ha":2296,"x_min":0,"x_max":0,"o":"m 2239 729 b 2247 657 2244 706 2247 682 l 2247 558 b 2239 488 2247 534 2244 510 b 2239 486 2239 487 2239 487 b 2004 251 2212 370 2120 278 b 1965 245 1991 248 1978 246 b 1932 243 1954 244 1943 243 l 292 243 l 292 0 l 49 0 l 49 972 l 1932 972 b 2004 964 1957 972 1981 969 b 2239 729 2120 937 2212 845 m 1911 486 b 2004 580 1962 486 2004 528 l 2004 636 b 1911 729 2004 687 1962 729 l 292 729 l 292 486 "},"":{"ha":2288,"x_min":0,"x_max":0,"o":"m 2146 972 b 2239 879 2197 972 2239 930 l 2239 608 l 1996 608 l 1996 670 b 1937 729 1996 703 1970 729 l 292 729 l 292 243 l 1996 243 l 1996 399 l 1874 486 l 2239 486 l 2239 0 l 49 0 l 49 972 "},"":{"ha":2296,"x_min":0,"x_max":0,"o":"m 2247 547 l 2004 547 l 2004 686 b 1960 729 2004 710 1985 729 l 292 729 l 292 486 l 1761 486 l 1761 243 l 292 243 l 292 0 l 49 0 l 49 972 l 2154 972 b 2247 879 2205 972 2247 930 "},"":{"ha":2296,"x_min":0,"x_max":0,"o":"m 2247 0 l 1984 0 l 1832 365 l 1732 608 l 1681 729 l 614 729 l 564 608 l 463 365 l 312 0 l 49 0 l 200 365 l 301 608 l 351 729 l 452 972 l 1607 972 l 1607 972 l 1672 972 l 1672 972 l 1844 972 l 1945 729 l 1995 608 l 2096 365 "},"":{"ha":2288,"x_min":0,"x_max":0,"o":"m 2239 972 l 2239 0 l 2002 0 l 2002 104 l 1908 0 l 327 0 b 49 267 184 15 69 126 l 49 972 l 292 972 l 292 337 b 385 243 292 285 334 243 l 1995 243 l 1996 972 "},"":{"ha":2256,"x_min":0,"x_max":0,"o":"m 1964 547 l 1964 636 b 1871 729 1964 687 1922 729 l 292 729 l 292 337 b 385 243 292 285 334 243 l 2207 243 l 2207 0 l 364 0 b 331 2 352 0 342 1 b 292 8 317 3 304 5 b 57 243 175 35 84 127 b 52 269 55 252 53 260 b 49 315 50 284 49 299 l 49 972 l 1892 972 b 1964 964 1917 972 1941 969 b 2199 729 2080 937 2172 845 b 2207 657 2204 706 2207 682 l 2207 547 "}}}
